<svg width="526" height="526" viewBox="0 0 526 526" fill="none" xmlns="http://www.w3.org/2000/svg">
<g clip-path="url(#clip0_54_388)">
<rect x="98" y="30" width="365" height="496" fill="white"/>
<path fill-rule="evenodd" clip-rule="evenodd" d="M461.736 0C497.205 0 526 28.7964 526 64.2645V461.736C526 497.204 497.204 526 461.736 526H352.356V327.81H420.777L433.796 242.93H352.356V187.847C352.356 164.626 363.732 141.99 400.21 141.99H437.238V69.7268C437.238 69.7268 403.633 63.9922 371.506 63.9922C304.433 63.9922 260.594 104.643 260.594 178.237V242.93H186.037V327.81H260.594V526H64.2645C28.7964 526 0 497.204 0 461.736V64.2645C0 28.7964 28.7954 0 64.2645 0L461.736 0Z" fill="black"/>
</g>
<defs>
<clipPath id="clip0_54_388">
<rect width="526" height="526" fill="white"/>
</clipPath>
</defs>
</svg>
