<svg width="549" height="549" viewBox="0 0 549 549" fill="none" xmlns="http://www.w3.org/2000/svg">
<rect x="38" y="39" width="474" height="470" fill="white"/>
<path fill-rule="evenodd" clip-rule="evenodd" d="M481.926 0C518.945 0 549 30.0556 549 67.0745V481.926C549 518.944 518.944 549 481.926 549H67.0745C30.0556 549 0 518.944 0 481.926V67.0745C0 30.0556 30.0545 0 67.0745 0L481.926 0ZM274.5 86.8535C223.538 86.8535 217.148 87.069 197.134 87.9826C177.161 88.894 163.521 92.0658 151.584 96.7055C139.244 101.501 128.78 107.917 118.348 118.348C107.916 128.78 101.5 139.245 96.7044 151.584C92.0658 163.521 88.894 177.161 87.9815 197.134C87.069 217.148 86.8535 223.538 86.8535 274.5C86.8535 325.462 87.069 331.852 87.9815 351.866C88.894 371.839 92.0658 385.479 96.7044 397.416C101.5 409.755 107.916 420.22 118.348 430.652C128.78 441.084 139.244 447.5 151.584 452.296C163.521 456.934 177.161 460.106 197.134 461.017C217.148 461.931 223.538 462.146 274.5 462.146C325.462 462.146 331.852 461.931 351.866 461.017C371.839 460.106 385.479 456.934 397.416 452.296C409.755 447.5 420.22 441.084 430.652 430.652C441.084 420.22 447.5 409.755 452.296 397.416C456.934 385.479 460.106 371.839 461.017 351.866C461.931 331.852 462.146 325.462 462.146 274.5C462.146 223.538 461.931 217.148 461.017 197.134C460.106 177.161 456.934 163.521 452.296 151.584C447.5 139.245 441.084 128.78 430.652 118.348C420.22 107.917 409.755 101.501 397.416 96.7055C385.479 92.0658 371.839 88.894 351.866 87.9826C331.852 87.069 325.462 86.8535 274.5 86.8535ZM274.5 120.664C324.604 120.664 330.539 120.855 350.325 121.758C368.62 122.593 378.556 125.65 385.169 128.218C393.928 131.623 400.178 135.69 406.745 142.255C413.311 148.822 417.377 155.073 420.782 163.831C423.351 170.444 426.408 180.38 427.242 198.675C428.145 218.461 428.337 224.396 428.337 274.5C428.337 324.604 428.145 330.539 427.242 350.325C426.408 368.62 423.351 378.556 420.782 385.169C417.377 393.928 413.311 400.178 406.745 406.745C400.178 413.311 393.928 417.377 385.169 420.782C378.556 423.351 368.62 426.408 350.325 427.242C330.542 428.145 324.607 428.337 274.5 428.337C224.393 428.337 218.459 428.145 198.675 427.242C180.38 426.408 170.444 423.351 163.831 420.782C155.072 417.377 148.822 413.311 142.255 406.745C135.689 400.178 131.622 393.928 128.218 385.169C125.649 378.556 122.592 368.62 121.757 350.325C120.854 330.539 120.663 324.604 120.663 274.5C120.663 224.396 120.854 218.461 121.757 198.675C122.592 180.38 125.649 170.444 128.218 163.831C131.622 155.073 135.689 148.822 142.255 142.255C148.822 135.69 155.072 131.623 163.831 128.218C170.444 125.65 180.38 122.593 198.675 121.758C218.461 120.855 224.396 120.664 274.5 120.664ZM274.5 178.141C221.282 178.141 178.141 221.282 178.141 274.5C178.141 327.718 221.282 370.859 274.5 370.859C327.718 370.859 370.859 327.718 370.859 274.5C370.859 221.282 327.718 178.141 274.5 178.141ZM274.5 337.048C239.955 337.048 211.952 309.045 211.952 274.5C211.952 239.955 239.955 211.952 274.5 211.952C309.045 211.952 337.048 239.955 337.048 274.5C337.048 309.045 309.045 337.048 274.5 337.048ZM397.184 174.334C397.184 186.77 387.102 196.851 374.666 196.851C362.231 196.851 352.149 186.77 352.149 174.334C352.149 161.898 362.231 151.817 374.666 151.817C387.102 151.817 397.184 161.898 397.184 174.334Z" fill="black"/>
</svg>
