<svg width="540" height="541" viewBox="0 0 540 541" fill="none" xmlns="http://www.w3.org/2000/svg">
<rect x="35" y="41" width="474" height="470" fill="white"/>
<path fill-rule="evenodd" clip-rule="evenodd" d="M474.025 0C510.438 0 540 29.6176 540 66.0971V474.903C540 511.382 510.437 541 474.025 541H65.9749C29.5629 541 0 511.382 0 474.903V66.0971C0 29.6176 29.5618 0 65.9749 0L474.025 0ZM169.236 447.253V208.751H90.0925V447.253H169.236ZM454.57 447.253V310.482C454.57 237.222 415.528 203.142 363.465 203.142C321.485 203.142 302.68 226.273 292.151 242.519V208.751H213.027C214.076 231.132 213.027 447.253 213.027 447.253H292.149V314.057C292.149 306.927 292.662 299.801 294.759 294.704C300.469 280.466 313.497 265.717 335.358 265.717C363.977 265.717 375.443 287.596 375.443 319.644V447.253H454.57ZM130.199 93.7473C103.121 93.7473 85.4297 111.582 85.4297 134.958C85.4297 157.843 102.583 176.169 129.152 176.169H129.662C157.258 176.169 174.436 157.843 174.436 134.958C173.924 111.615 157.307 93.798 130.199 93.7473Z" fill="black"/>
</svg>
