<svg width="555" height="545" viewBox="0 0 555 545" fill="none" xmlns="http://www.w3.org/2000/svg">
<rect x="34" y="71" width="488" height="444" fill="white"/>
<path fill-rule="evenodd" clip-rule="evenodd" d="M487.192 0C524.617 0 555 29.8366 555 66.5858V478.414C555 515.163 524.616 545 487.192 545H67.8076C30.3841 545 0 515.163 0 478.414V66.5858C0 29.8366 30.383 0 67.8076 0L487.192 0ZM423.592 135.934C386.908 99.8691 338.123 79.999 286.145 79.9777C179.048 79.9777 91.8839 165.565 91.8417 270.764C91.8276 304.393 100.775 337.216 117.778 366.152L90.2135 465.022L193.215 438.491C221.595 453.691 253.548 461.703 286.067 461.713H286.147C393.233 461.713 480.403 376.117 480.448 270.917C480.467 219.935 460.275 171.998 423.592 135.934ZM286.146 429.491H286.081C257.102 429.48 228.68 421.834 203.884 407.385L197.986 403.948L136.865 419.694L153.179 361.173L149.339 355.173C133.174 329.924 124.634 300.741 124.647 270.776C124.683 183.339 197.13 112.203 286.211 112.203C329.346 112.218 369.893 128.735 400.386 158.711C430.876 188.686 447.657 228.531 447.641 270.904C447.604 358.348 375.159 429.49 286.146 429.491ZM374.73 310.718C369.875 308.332 346.006 296.8 341.556 295.208C337.106 293.617 333.869 292.823 330.633 297.593C327.396 302.365 318.092 313.105 315.26 316.287C312.428 319.468 309.596 319.868 304.742 317.48C299.886 315.094 284.243 310.06 265.7 293.817C251.268 281.175 241.523 265.564 238.691 260.791C235.86 256.018 238.389 253.438 240.819 251.062C243.004 248.926 245.675 245.493 248.102 242.709C250.53 239.926 251.339 237.936 252.958 234.756C254.576 231.573 253.767 228.79 252.552 226.404C251.339 224.018 241.629 200.55 237.583 191.004C233.643 181.709 229.641 182.968 226.66 182.821C223.832 182.683 220.592 182.653 217.356 182.653C214.119 182.653 208.859 183.846 204.409 188.618C199.959 193.391 187.418 204.925 187.418 228.39C187.418 251.857 204.813 274.526 207.24 277.708C209.669 280.891 241.475 329.044 290.177 349.694C301.76 354.607 310.803 357.54 317.855 359.736C329.484 363.366 340.068 362.854 348.433 361.626C357.76 360.258 377.157 350.094 381.203 338.958C385.248 327.82 385.248 318.275 384.034 316.287C382.821 314.298 379.584 313.105 374.73 310.718Z" fill="black"/>
</svg>
